<?xml version="1.0" encoding="utf-8"?><svg fill="none" viewBox="0 0 90 92" xmlns="http://www.w3.org/2000/svg"><defs><clipPath id="cp-90-92"><rect height="92" width="90" y="0" x="0" /></clipPath><g id="comp_0"><g opacity="0" id="Scroll Outlines"><animate repeatCount="indefinite" begin="0s" calcMode="discrete" fill="freeze" dur="1.568s" values="visible; hidden" keyTimes="0; 1" attributeName="visibility" /><animate repeatCount="indefinite" attributeName="opacity" dur="1.5348682015348691s" begin="0s" calcMode="spline" values="0; 1; 1; 0" keyTimes="0; 0.326; 0.674; 1" keySplines="0.333 0 0.667 1; 0.333 0 0.667 1; 0.333 0 0.667 1" fill="freeze" /><g transform="translate(44.75,34.5)"><animateTransform repeatCount="indefinite" type="translate" attributeName="transform" dur="1.535s" begin="0s" calcMode="spline" values="44.75 34.5; 44.75 62" keyTimes="0; 1" keySplines="0.333 0 0.667 1" fill="freeze" /><g transform="scale(0.7,0.7)"><animateTransform repeatCount="indefinite" type="scale" attributeName="transform" dur="1.535s" begin="0s" calcMode="spline" values="0.7 0.7; 0.8 0.8; 0.8 0.8; 0.7 0.7" keyTimes="0; 0.326; 0.674; 1" keySplines="0.333 0 0.833 0.833; 0 0 1 1; 0.333 0 0.833 0.833" fill="freeze" /><g transform="translate(-45,-46)"><g id="Group 1" transform="matrix(1,0,0,1,45,47.893)"><path fill="#222222" fill-opacity="1" d="M19.607,-10.516C18.436,-11.688,16.536,-11.688,15.365,-10.516L0.001,4.848L-15.364,-10.516C-16.536,-11.688,-18.436,-11.688,-19.607,-10.516C-20.779,-9.345,-20.779,-7.445,-19.607,-6.273L-2.637,10.697C-1.919,11.414,-0.928,11.688,0.001,11.526C0.929,11.688,1.919,11.414,2.635,10.697L19.607,-6.273C20.779,-7.445,20.779,-9.345,19.607,-10.516Z" /></g></g></g></g></g><g opacity="0" visibility="hidden" id="Scroll Outlines 2"><animate repeatCount="indefinite" begin="0.767s" calcMode="discrete" fill="freeze" dur="1.568s" values="visible; hidden" keyTimes="0; 1" attributeName="visibility" /><animate repeatCount="indefinite" attributeName="opacity" dur="1.5348682327930996s" begin="0.7674340695092042s" calcMode="spline" values="0; 1; 1; 0" keyTimes="0; 0.326; 0.674; 1" keySplines="0.333 0 0.667 1; 0.333 0 0.667 1; 0.333 0 0.667 1" fill="freeze" /><g transform="translate(44.75,34.5)"><animateTransform repeatCount="indefinite" type="translate" attributeName="transform" dur="1.535s" begin="0.767s" calcMode="spline" values="44.75 34.5; 44.75 62" keyTimes="0; 1" keySplines="0.333 0 0.667 1" fill="freeze" /><g transform="scale(0.7,0.7)"><animateTransform repeatCount="indefinite" type="scale" attributeName="transform" dur="1.535s" begin="0.767s" calcMode="spline" values="0.7 0.7; 0.8 0.8; 0.8 0.8; 0.7 0.7" keyTimes="0; 0.326; 0.674; 1" keySplines="0.333 0 0.833 0.833; 0 0 1 1; 0.333 0 0.833 0.833" fill="freeze" /><g transform="translate(-45,-46)"><g id="Group 1" transform="matrix(1,0,0,1,45,47.893)"><path fill="#222222" fill-opacity="1" d="M19.607,-10.516C18.436,-11.688,16.536,-11.688,15.365,-10.516L0.001,4.848L-15.364,-10.516C-16.536,-11.688,-18.436,-11.688,-19.607,-10.516C-20.779,-9.345,-20.779,-7.445,-19.607,-6.273L-2.637,10.697C-1.919,11.414,-0.928,11.688,0.001,11.526C0.929,11.688,1.919,11.414,2.635,10.697L19.607,-6.273C20.779,-7.445,20.779,-9.345,19.607,-10.516Z" /></g></g></g></g></g><g opacity="0" visibility="hidden" id="Scroll Outlines 3"><animate repeatCount="indefinite" begin="1.568s" calcMode="discrete" fill="freeze" dur="1.568s" values="visible; hidden" keyTimes="0; 1" attributeName="visibility" /><animate repeatCount="indefinite" attributeName="opacity" dur="1.534868265410382s" begin="1.5682348376927218s" calcMode="spline" values="0; 1; 1; 0" keyTimes="0; 0.326; 0.674; 1" keySplines="0.333 0 0.667 1; 0.333 0 0.667 1; 0.333 0 0.667 1" fill="freeze" /><g transform="translate(44.75,34.5)"><animateTransform repeatCount="indefinite" type="translate" attributeName="transform" dur="1.535s" begin="1.568s" calcMode="spline" values="44.75 34.5; 44.75 62" keyTimes="0; 1" keySplines="0.333 0 0.667 1" fill="freeze" /><g transform="scale(0.7,0.7)"><animateTransform repeatCount="indefinite" type="scale" attributeName="transform" dur="1.535s" begin="1.568s" calcMode="spline" values="0.7 0.7; 0.8 0.8; 0.8 0.8; 0.7 0.7" keyTimes="0; 0.326; 0.674; 1" keySplines="0.333 0 0.833 0.833; 0 0 1 1; 0.333 0 0.833 0.833" fill="freeze" /><g transform="translate(-45,-46)"><g id="Group 1" transform="matrix(1,0,0,1,45,47.893)"><path fill="#222222" fill-opacity="1" d="M19.607,-10.516C18.436,-11.688,16.536,-11.688,15.365,-10.516L0.001,4.848L-15.364,-10.516C-16.536,-11.688,-18.436,-11.688,-19.607,-10.516C-20.779,-9.345,-20.779,-7.445,-19.607,-6.273L-2.637,10.697C-1.919,11.414,-0.928,11.688,0.001,11.526C0.929,11.688,1.919,11.414,2.635,10.697L19.607,-6.273C20.779,-7.445,20.779,-9.345,19.607,-10.516Z" /></g></g></g></g></g><g opacity="0" visibility="hidden" id="Scroll Outlines 4"><animate repeatCount="indefinite" begin="2.336s" calcMode="discrete" fill="freeze" dur="1.568s" values="visible; visible" keyTimes="0; 1" attributeName="visibility" /><animate repeatCount="indefinite" attributeName="opacity" dur="1.534868296668619s" begin="2.335668907201926s" calcMode="spline" values="0; 1; 1; 0" keyTimes="0; 0.326; 0.674; 1" keySplines="0.333 0 0.667 1; 0.333 0 0.667 1; 0.333 0 0.667 1" fill="freeze" /><g transform="translate(44.75,34.5)"><animateTransform repeatCount="indefinite" type="translate" attributeName="transform" dur="1.535s" begin="2.336s" calcMode="spline" values="44.75 34.5; 44.75 62" keyTimes="0; 1" keySplines="0.333 0 0.667 1" fill="freeze" /><g transform="scale(0.7,0.7)"><animateTransform repeatCount="indefinite" type="scale" attributeName="transform" dur="1.535s" begin="2.336s" calcMode="spline" values="0.7 0.7; 0.8 0.8; 0.8 0.8; 0.7 0.7" keyTimes="0; 0.326; 0.674; 1" keySplines="0.333 0 0.833 0.833; 0 0 1 1; 0.333 0 0.833 0.833" fill="freeze" /><g transform="translate(-45,-46)"><g id="Group 1" transform="matrix(1,0,0,1,45,47.893)"><path fill="#222222" fill-opacity="1" d="M19.607,-10.516C18.436,-11.688,16.536,-11.688,15.365,-10.516L0.001,4.848L-15.364,-10.516C-16.536,-11.688,-18.436,-11.688,-19.607,-10.516C-20.779,-9.345,-20.779,-7.445,-19.607,-6.273L-2.637,10.697C-1.919,11.414,-0.928,11.688,0.001,11.526C0.929,11.688,1.919,11.414,2.635,10.697L19.607,-6.273C20.779,-7.445,20.779,-9.345,19.607,-10.516Z" /></g></g></g></g></g></g></defs><g transform="matrix(1,0,0,1,0,0)" id="Scroll"><use clip-path="url(#cp-90-92)" height="92" width="90" y="0" x="0" xlink:href="#comp_0" href="#comp_0" /></g></svg>