<?xml version="1.0" encoding="UTF-8" standalone="no"?>
<!-- Created with Inkscape (http://www.inkscape.org/) -->

<svg
   width="69.379959mm"
   height="17.006376mm"
   viewBox="0 0 262.22347 64.27607"
   version="1.1"
   id="svg1"
   xmlns="http://www.w3.org/2000/svg"
   xmlns:svg="http://www.w3.org/2000/svg">
  <defs
     id="defs1" />
  <g
     id="layer1"
     transform="translate(-355.20144,-37.016938)">
    <g
       id="text1"
       style="font-size:74.6667px;font-family:'MS UI Gothic';-inkscape-font-specification:'MS UI Gothic';text-align:center;letter-spacing:-6.56px;text-anchor:middle;white-space:pre;fill:none;stroke:#00e78f;stroke-width:2.06376;stroke-linecap:square;paint-order:fill markers stroke"
       aria-label="BitMage">
      <path
         style="font-family:'OCR A Extended';-inkscape-font-specification:'OCR A Extended';fill:#ff8600;stroke:none"
         d="m 386.19101,73.147163 v 2.697918 q 0,5.067711 -3.60938,8.713546 -3.57291,3.609377 -8.64063,3.609377 H 355.20141 V 39.714856 H 373.941 q 5.06772,0 8.64063,3.609376 3.60938,3.609377 3.60938,8.713546 v 2.588543 q 0,5.432294 -4.19271,9.260421 4.19271,3.901044 4.19271,9.260421 z m -6.27084,-18.593759 v -2.515626 q 0,-2.552084 -1.82291,-4.375002 -1.78646,-1.822917 -4.30209,-1.822917 h -12.46875 v 14.838548 h 12.46875 q 2.47917,0 4.30209,-1.786459 1.82291,-1.822917 1.82291,-4.338544 z m 0,21.291677 v -2.552084 q 0,-2.552085 -1.82291,-4.375002 -1.78646,-1.822918 -4.30209,-1.822918 h -12.39584 v 14.875007 h 12.39584 q 2.47917,0 4.30209,-1.786459 1.82291,-1.822918 1.82291,-4.338544 z"
         id="path4" />
      <path
         style="font-family:'OCR A Extended';-inkscape-font-specification:'OCR A Extended';fill:#ffffff;stroke:none"
         d="m 406.13623,37.016938 h 3.20834 q 1.27604,0 2.15104,0.911459 0.91146,0.875 0.91146,2.151042 v 2.625001 q 0,1.276043 -0.91146,2.22396 -0.875,0.911459 -2.15104,0.911459 h -3.28126 q -1.3125,0 -2.22396,-0.947918 -0.875,-0.947917 -0.83854,-2.114584 l 0.0729,-2.697918 q 0,-1.276042 0.875,-2.151042 0.91146,-0.911459 2.1875,-0.911459 z m 12.46876,51.078149 h -18.66668 q -1.27604,0 -2.1875,-0.875 -0.875,-0.911459 -0.875,-2.187501 0,-1.239584 0.875,-2.151043 0.91146,-0.911459 2.1875,-0.911459 h 6.27084 V 59.110698 h -6.19792 q -1.27604,0 -2.1875,-0.911458 -0.875,-0.911459 -0.875,-2.151043 0,-1.276042 0.875,-2.187501 0.91146,-0.947917 2.1875,-0.947917 h 9.33334 q 1.27604,0 2.15104,0.947917 0.91146,0.911459 0.91146,2.187501 v 25.921887 h 6.125 q 1.27604,0 2.1875,0.911459 0.94792,0.875 0.94792,2.151043 0,1.276042 -0.91146,2.187501 -0.91146,0.875 -2.15104,0.875 z m 35.33064,0.07292 h -6.125 q -3.79167,0 -6.52605,-2.697918 -2.73437,-2.697918 -2.73437,-6.489587 V 59.110698 h -3.13542 q -1.27604,0 -2.1875,-0.875 -0.875,-0.875001 -0.875,-2.187501 0,-1.276042 0.875,-2.151043 0.91146,-0.911459 2.1875,-0.911459 h 3.20833 v -7.51042 q 0,-1.276042 0.875,-2.151043 0.91146,-0.911458 2.1875,-0.911458 1.20313,0 2.11459,0.911458 0.94792,0.911459 0.94792,2.151043 v 7.51042 h 12.32292 q 1.23958,0 2.15104,0.911459 0.91146,0.911459 0.91146,2.151043 0,1.276042 -0.91146,2.187501 -0.91146,0.875 -2.15104,0.875 h -12.39584 v 19.869801 q 0,1.239584 0.91146,2.151043 0.94791,0.911459 2.22396,0.911459 h 5.97917 q 2.44271,0 3.24479,-2.625001 0.80208,-2.66146 3.09896,-2.66146 1.34896,0 2.1875,0.911459 0.875,0.875 0.875,2.223959 0,2.770835 -2.625,5.541669 -2.58854,2.734377 -6.63542,2.734377 z"
         id="path5" />
      <path
         style="font-family:'OCR A Extended';-inkscape-font-specification:'OCR A Extended';fill:#0089ff;stroke:none"
         d="m 483.28711,58.746115 v -1.567709 l -6.34375,-9.041671 v 36.968767 q 0,1.276043 -0.91146,2.187501 -0.875,0.875001 -2.15104,0.875001 -1.27604,0 -2.1875,-0.911459 -0.875,-0.911459 -0.875,-2.151043 V 39.714856 h 7.91146 l 7.54688,10.973963 7.76563,-10.973963 h 7.76562 v 45.390646 q 0,1.276043 -0.94791,2.187501 -0.91146,0.875001 -2.1875,0.875001 -1.23959,0 -2.15105,-0.911459 -0.91146,-0.911459 -0.91146,-2.151043 V 48.282568 l -6.19792,8.750004 v 1.713543 q 0,1.239584 -0.91145,2.151042 -0.91146,0.911459 -2.15105,0.911459 -1.27604,0 -2.1875,-0.911459 -0.875,-0.911458 -0.875,-2.151042 z"
         id="path6" />
      <path
         style="font-family:'OCR A Extended';-inkscape-font-specification:'OCR A Extended';fill:#ffffff;stroke:none"
         d="m 518.61775,66.074243 h 11.9948 q 0.98437,0 2.84375,0.4375 L 533.3834,62.1732 q 0,-1.276043 -0.91146,-2.151043 -0.875,-0.911459 -2.15104,-0.911459 h -11.63022 q -1.23958,0 -2.15104,-0.911458 -0.91146,-0.911459 -0.91146,-2.151043 0,-1.276042 0.875,-2.151043 0.91146,-0.911459 2.1875,-0.911459 h 11.63022 q 3.79167,0 6.45313,2.66146 2.69791,2.66146 2.80729,6.526045 l 0.76562,22.932302 q 0,1.276043 -0.91145,2.187501 -0.91146,0.875001 -2.15105,0.875001 -1.3125,0 -2.22396,-0.875001 -0.91145,-0.911458 -0.91145,-2.187501 l -5.17709,3.062502 h -10.35417 q -3.86459,0 -6.56251,-2.697918 -2.69791,-2.697918 -2.69791,-6.562503 v -3.572919 q 0,-3.828126 2.69791,-6.526044 2.73438,-2.734377 6.56251,-2.734377 z m 15.31251,11.921881 -0.1823,-2.588543 q -0.0365,-1.312501 -0.91146,-2.187501 -0.875,-0.875 -2.15104,-0.875 h -12.06771 q -1.27604,0 -2.1875,0.911458 -0.875,0.875001 -0.875,2.151043 v 3.427085 q 0,1.239584 0.91146,2.151043 0.91145,0.911458 2.15104,0.911458 h 8.64063 z m 33.3619,23.296886 h -13.27084 q -1.27605,0 -2.18751,-0.875 -0.875,-0.875001 -0.875,-2.187501 0,-1.276043 0.875,-2.151043 0.91146,-0.875001 2.18751,-0.875001 h 13.27084 q 1.20312,0 2.26041,-0.911458 l 2.07813,-1.786459 q 1.05729,-0.802084 1.05729,-2.114585 v -9.333338 q -4.30208,4.338544 -8.38542,4.338544 h -4.70313 q -3.64583,0 -6.5625,-2.515626 l -2.29688,-2.041668 q -1.1302,-0.947917 -1.96875,-2.770834 -0.80208,-1.822918 -0.80208,-3.572919 V 64.360701 q 0,-2.151043 0.80208,-4.083336 0.83855,-1.932292 1.96875,-2.880209 l 2.51563,-2.151043 q 2.69792,-2.333334 6.34375,-2.333334 h 4.41146 q 3.60938,0 6.56251,2.552084 l 2.11458,1.786459 -0.0729,-1.203125 q 0,-1.239584 0.91146,-2.151043 0.91146,-0.911459 2.15105,-0.911459 1.27604,0 2.1875,0.911459 0.94791,0.875001 0.94791,2.151043 v 34.343766 q 0,3.901044 -3.13541,6.671878 l -2.47917,2.151043 q -0.94792,0.838546 -2.69792,1.458336 -1.71354,0.61979 -3.20833,0.61979 z m -3.50001,-42.255228 h -4.11979 q -1.34896,0 -2.58854,1.057292 l -1.89584,1.567709 q -1.09375,0.911459 -1.09375,2.479168 v 10.208338 q 0,1.239584 1.20313,2.333334 l 2.00521,1.78646 q 0.94791,0.802083 2.00521,0.802083 h 4.99479 q 1.09375,0 2.40625,-1.09375 l 4.84896,-4.119794 q 1.13021,-0.984375 1.13021,-2.406251 V 67.02216 q 0,-1.677084 -1.27604,-2.734376 l -4.99479,-4.265627 q -1.0573,-0.984375 -2.62501,-0.984375 z m 53.63275,5.468752 v 7.401045 q 0,1.239584 -0.91146,2.151043 -0.91146,0.911459 -2.15104,0.911459 h -21.65626 v 1.786459 q 0,1.567709 1.34895,2.66146 l 1.78646,1.494792 q 1.45834,1.130209 2.77084,1.130209 h 15.75001 q 1.23958,0 2.15104,0.911459 0.91146,0.875 0.91146,2.151042 0,1.239584 -0.94792,2.151043 -0.91146,0.911459 -2.11458,0.911459 h -16.15105 q -1.60417,0 -3.39063,-0.656251 -1.75,-0.692708 -2.58854,-1.421875 l -2.73438,-2.406251 q -1.27604,-1.020834 -2.15104,-2.843752 -0.83854,-1.822917 -0.83854,-3.354168 V 63.449242 q 0,-1.203126 0.91145,-3.244793 0.94792,-2.041668 2.3698,-3.171877 l 2.55208,-2.005209 q 2.51563,-2.041668 5.57813,-2.041668 h 8.60417 q 3.24479,0 6.125,2.697918 l 2.29688,2.187501 q 2.47917,2.22396 2.47917,6.63542 z m -24.64585,-0.473958 v 4.739585 h 18.59376 v -4.265627 q 0,-1.713542 -1.05729,-2.625001 l -1.78646,-1.567709 q -1.38542,-1.130209 -2.47917,-1.130209 h -7.69271 q -1.42188,0 -2.58854,0.984375 l -1.78646,1.494793 q -1.20313,0.911459 -1.20313,2.369793 z"
         id="path7" />
    </g>
  </g>
</svg>
