<?xml version="1.0" encoding="UTF-8" standalone="no"?>
<svg
   width="150.96075"
   height="30.184"
   viewBox="0 0 150.96075 30.184"
   fill="none"
   version="1.1"
   id="svg4"
   xml:space="preserve"
   xmlns="http://www.w3.org/2000/svg"
   xmlns:svg="http://www.w3.org/2000/svg"><g
     filter="url(#filter0_d_235_2)"
     id="g2"><path
       d="M 6.016,24.864 1.54972e-6,1.504 H 2.976 l 3.968,15.872 c 0.27734,1.1093 0.512,2.144 0.704,3.104 0.192,0.9387 0.33067,1.6533 0.416,2.144 C 8.14934,22.1333 8.27734,21.4187 8.448,20.48 8.64,19.52 8.87467,18.4853 9.152,17.376 L 13.088,1.504 H 16 l -6.048,23.36 z m 21.1715,0.256 c -1.408,0 -2.624,-0.2667 -3.648,-0.8 -1.024,-0.5333 -1.824,-1.3013 -2.4,-2.304 -0.5547,-1.024 -0.832,-2.2293 -0.832,-3.616 v -4.672 c 0,-1.408 0.2773,-2.6133 0.832,-3.616 0.576,-1.00267 1.376,-1.77067 2.4,-2.304 1.024,-0.53334 2.24,-0.8 3.648,-0.8 1.408,0 2.624,0.26666 3.648,0.8 1.024,0.53333 1.8133,1.30133 2.368,2.304 0.576,1.0027 0.864,2.1973 0.864,3.584 V 18.4 c 0,1.3867 -0.288,2.592 -0.864,3.616 -0.5547,1.0027 -1.344,1.7707 -2.368,2.304 -1.024,0.5333 -2.24,0.8 -3.648,0.8 z m 0,-2.56 c 1.2587,0 2.24,-0.352 2.944,-1.056 0.704,-0.704 1.056,-1.7387 1.056,-3.104 v -4.672 c 0,-1.3653 -0.352,-2.4 -1.056,-3.104 -0.704,-0.704 -1.6853,-1.056 -2.944,-1.056 -1.2373,0 -2.2187,0.352 -2.944,1.056 -0.704,0.704 -1.056,1.7387 -1.056,3.104 V 18.4 c 0,1.3653 0.352,2.4 1.056,3.104 0.7253,0.704 1.7067,1.056 2.944,1.056 z"
       fill="#ffd239"
       id="path1" /><path
       d="M 44.935,24.864 V 4.096 h -6.4 V 1.472 h 15.68 v 2.624 h -6.4 v 20.768 z m 19.0915,0.32 c -1.856,0 -3.3173,-0.4693 -4.384,-1.408 -1.0667,-0.96 -1.6,-2.2507 -1.6,-3.872 0,-1.6427 0.5333,-2.9333 1.6,-3.872 1.0667,-0.9387 2.5067,-1.408 4.32,-1.408 h 5.44 v -1.76 c 0,-1.088 -0.3307,-1.92 -0.992,-2.496 -0.64,-0.59734 -1.5573,-0.896 -2.752,-0.896 -1.0453,0 -1.92,0.224 -2.624,0.672 -0.704,0.4267 -1.1093,1.0133 -1.216,1.76 h -2.88 c 0.192,-1.5147 0.9067,-2.72 2.144,-3.616 1.2373,-0.896 2.784,-1.344 4.64,-1.344 2.0267,0 3.6267,0.52266 4.8,1.568 1.1733,1.04533 1.76,2.464 1.76,4.256 v 12.096 h -2.816 v -3.36 h -0.48 l 0.48,-0.48 c 0,1.28 -0.5013,2.2933 -1.504,3.04 -0.9813,0.7467 -2.2933,1.12 -3.936,1.12 z m 0.704,-2.272 c 1.3653,0 2.4853,-0.3413 3.36,-1.024 0.8747,-0.6827 1.312,-1.5573 1.312,-2.624 v -2.496 h -5.376 c -0.96,0 -1.7173,0.2667 -2.272,0.8 -0.5547,0.5333 -0.832,1.2587 -0.832,2.176 0,0.9813 0.3307,1.76 0.992,2.336 0.6827,0.5547 1.6213,0.832 2.816,0.832 z M 77.87,24.864 V 22.24 h 6.24 V 9.888 H 78.67 V 7.264 h 8.32 V 22.24 h 5.92 v 2.624 z M 85.23,4.096 C 84.526,4.096 83.9713,3.91466 83.566,3.552 83.1607,3.18933 82.958,2.69866 82.958,2.08 82.958,1.44 83.1607,0.938663 83.566,0.575996 83.9713,0.191998 84.526,-1.90735e-6 85.23,-1.90735e-6 85.934,-1.90735e-6 86.4887,0.191998 86.894,0.575996 87.2993,0.938663 87.502,1.44 87.502,2.08 c 0,0.61866 -0.2027,1.10933 -0.608,1.472 -0.4053,0.36266 -0.96,0.544 -1.664,0.544 z m 21.108,20.768 c -1.024,0 -1.92,-0.2027 -2.688,-0.608 -0.768,-0.4053 -1.366,-0.9813 -1.792,-1.728 -0.427,-0.7467 -0.64,-1.6213 -0.64,-2.624 V 4.128 H 95.2975 V 1.504 h 8.8005 v 18.4 c 0,0.7253 0.202,1.3013 0.608,1.728 0.405,0.4053 0.949,0.608 1.632,0.608 h 5.6 v 2.624 z"
       fill="#febe3a"
       id="path2" /></g><defs
     id="defs4"><filter
       id="filter0_d_235_2"
       x="0"
       y="0"
       width="111.938"
       height="30.184"
       filterUnits="userSpaceOnUse"
       color-interpolation-filters="sRGB"><feFlood
         flood-opacity="0"
         result="BackgroundImageFix"
         id="feFlood2" /><feColorMatrix
         in="SourceAlpha"
         type="matrix"
         values="0 0 0 0 0 0 0 0 0 0 0 0 0 0 0 0 0 0 127 0"
         result="hardAlpha"
         id="feColorMatrix2" /><feOffset
         dy="5"
         id="feOffset2" /><feComposite
         in2="hardAlpha"
         operator="out"
         id="feComposite2" /><feColorMatrix
         type="matrix"
         values="0 0 0 0 0 0 0 0 0 0 0 0 0 0 0 0 0 0 0.3 0"
         id="feColorMatrix3" /><feBlend
         mode="normal"
         in2="BackgroundImageFix"
         result="effect1_dropShadow_235_2"
         id="feBlend3" /><feBlend
         mode="normal"
         in="SourceGraphic"
         in2="effect1_dropShadow_235_2"
         result="shape"
         id="feBlend4" /></filter><filter
       id="filter0_d_235_3"
       x="0"
       y="0"
       width="35.508202"
       height="30"
       filterUnits="userSpaceOnUse"
       color-interpolation-filters="sRGB"><feFlood
         flood-opacity="0"
         result="BackgroundImageFix"
         id="feFlood3" /><feColorMatrix
         in="SourceAlpha"
         type="matrix"
         values="0 0 0 0 0 0 0 0 0 0 0 0 0 0 0 0 0 0 127 0"
         result="hardAlpha"
         id="feColorMatrix3-4" /><feOffset
         dy="5"
         id="feOffset3" /><feComposite
         in2="hardAlpha"
         operator="out"
         id="feComposite3" /><feColorMatrix
         type="matrix"
         values="0 0 0 0 0 0 0 0 0 0 0 0 0 0 0 0 0 0 0.3 0"
         id="feColorMatrix4" /><feBlend
         mode="normal"
         in2="BackgroundImageFix"
         result="effect1_dropShadow_235_3"
         id="feBlend4-8" /><feBlend
         mode="normal"
         in="SourceGraphic"
         in2="effect1_dropShadow_235_3"
         result="shape"
         id="feBlend5" /></filter></defs><g
     style="fill:none"
     id="g4"
     transform="translate(115.45255,0.05603054)"><g
       filter="url(#filter0_d_235_3)"
       id="g3"><path
         d="M 14.4168,3.42075 C 11.3693,3.42104 8.44676,4.55793 6.29198,6.58135 4.1372,8.60477 2.9267,11.349 2.92673,14.2104 c -4e-5,2.8614 1.21046,5.6056 3.36525,7.629 2.15478,2.0234 5.07732,3.1603 8.12482,3.1606 1.5091,10e-5 3.0034,-0.279 4.3977,-0.8212 1.3942,-0.5422 2.6611,-1.337 3.7282,-2.3389 1.0671,-1.0019 1.9136,-2.1913 2.4911,-3.5004 0.5775,-1.3091 0.8748,-2.7122 0.8747,-4.1291 10e-5,-1.417 -0.2972,-2.82 -0.8747,-4.1291 C 24.4563,8.77219 23.6098,7.58274 22.5427,6.58082 21.4756,5.57891 20.2087,4.78414 18.8145,4.24194 17.4203,3.69973 15.9259,3.42069 14.4168,3.42075 Z M 9.551,14.4168 l 6.7445,5.4428 2.6166,-2.8994 1.7195,1.5472 -4.0907,4.5278 -8.43956,-6.8193 z"
         fill="#ffd239"
         id="path1-0" /><path
         d="M 27.1093,17.4387 35.5082,7.36122 21.789,4.37354 c 5.9801,2.76798 6.4548,8.64206 5.3203,13.06516 z"
         fill="#febe3a"
         id="path2-9" /><path
         d="M 3.13858,16.2762 0,0 17.1882,3.73893"
         fill="#ffd239"
         id="path3" /></g></g></svg>
